<?xml version="1.0" encoding="UTF-8" standalone="no"?>
<svg
   xmlns:dc="http://purl.org/dc/elements/1.1/"
   xmlns:cc="http://creativecommons.org/ns#"
   xmlns:rdf="http://www.w3.org/1999/02/22-rdf-syntax-ns#"
   xmlns:svg="http://www.w3.org/2000/svg"
   xmlns="http://www.w3.org/2000/svg"
   xmlns:sodipodi="http://sodipodi.sourceforge.net/DTD/sodipodi-0.dtd"
   xmlns:inkscape="http://www.inkscape.org/namespaces/inkscape"
   inkscape:export-ydpi="96"
   inkscape:export-xdpi="96"
   inkscape:export-filename="C:\Users\ashley\Pictures\Games\PoorPeoplePizzaParty-art\export\icons\die.png"
   inkscape:version="1.0 (4035a4fb49, 2020-05-01)"
   sodipodi:docname="die.svg"
   id="svg6"
   version="1.1"
   height="50"
   width="50"
   fill="#000000"
   viewBox="0 0 50 50">
  <metadata
     id="metadata12">
    <rdf:RDF>
      <cc:Work
         rdf:about="">
        <dc:format>image/svg+xml</dc:format>
        <dc:type
           rdf:resource="http://purl.org/dc/dcmitype/StillImage" />
        <dc:title></dc:title>
      </cc:Work>
    </rdf:RDF>
  </metadata>
  <defs
     id="defs10">
    <filter
       id="filter847"
       inkscape:label="Drop Shadow"
       style="color-interpolation-filters:sRGB;">
      <feFlood
         id="feFlood837"
         result="flood"
         flood-color="rgb(0,0,0)"
         flood-opacity="0.6" />
      <feComposite
         id="feComposite839"
         result="composite1"
         operator="in"
         in2="SourceGraphic"
         in="flood" />
      <feGaussianBlur
         id="feGaussianBlur841"
         result="blur"
         stdDeviation="0"
         in="composite1" />
      <feOffset
         id="feOffset843"
         result="offset"
         dy="2"
         dx="2" />
      <feComposite
         id="feComposite845"
         result="composite2"
         operator="over"
         in2="offset"
         in="SourceGraphic" />
    </filter>
  </defs>
  <sodipodi:namedview
     inkscape:current-layer="svg6"
     inkscape:window-maximized="1"
     inkscape:window-y="-8"
     inkscape:window-x="-8"
     inkscape:cy="25"
     inkscape:cx="25"
     inkscape:zoom="16.54"
     fit-margin-bottom="0"
     fit-margin-right="0"
     fit-margin-left="0"
     fit-margin-top="0"
     showgrid="false"
     id="namedview8"
     inkscape:window-height="1017"
     inkscape:window-width="1920"
     inkscape:pageshadow="2"
     inkscape:pageopacity="0"
     guidetolerance="10"
     gridtolerance="10"
     objecttolerance="10"
     borderopacity="1"
     bordercolor="#666666"
     pagecolor="#ffffff" />
  <path
     style="stroke-width:2.08333"
     id="path2"
     fill="none"
     d="M 0,0 H 50 V 50 H 0 Z M 43.791667,39.583333 C 43.791667,41.875 41.916667,43.75 39.625,43.75 H 10.458333 c -2.2916665,0 -4.1666665,-1.875 -4.1666665,-4.166667 V 10.416667 C 6.2916665,8.125 8.1666665,6.25 10.458333,6.25 H 39.625 c 2.291667,0 4.166667,1.875 4.166667,4.166667 z" />
  <path
     style="stroke-width:2.08333;fill:#ffffff;filter:url(#filter847)"
     id="path4"
     d="M 39.583333,6.25 H 10.416667 C 8.125,6.25 6.25,8.125 6.25,10.416667 V 39.583333 C 6.25,41.875 8.125,43.75 10.416667,43.75 H 39.583333 C 41.875,43.75 43.75,41.875 43.75,39.583333 V 10.416667 C 43.75,8.125 41.875,6.25 39.583333,6.25 Z M 15.625,37.5 c -1.729167,0 -3.125,-1.395833 -3.125,-3.125 0,-1.729167 1.395833,-3.125 3.125,-3.125 1.729167,0 3.125,1.395833 3.125,3.125 0,1.729167 -1.395833,3.125 -3.125,3.125 z m 0,-18.75 c -1.729167,0 -3.125,-1.395833 -3.125,-3.125 0,-1.729167 1.395833,-3.125 3.125,-3.125 1.729167,0 3.125,1.395833 3.125,3.125 0,1.729167 -1.395833,3.125 -3.125,3.125 z M 25,28.125 c -1.729167,0 -3.125,-1.395833 -3.125,-3.125 0,-1.729167 1.395833,-3.125 3.125,-3.125 1.729167,0 3.125,1.395833 3.125,3.125 0,1.729167 -1.395833,3.125 -3.125,3.125 z m 9.375,9.375 c -1.729167,0 -3.125,-1.395833 -3.125,-3.125 0,-1.729167 1.395833,-3.125 3.125,-3.125 1.729167,0 3.125,1.395833 3.125,3.125 0,1.729167 -1.395833,3.125 -3.125,3.125 z m 0,-18.75 c -1.729167,0 -3.125,-1.395833 -3.125,-3.125 0,-1.729167 1.395833,-3.125 3.125,-3.125 1.729167,0 3.125,1.395833 3.125,3.125 0,1.729167 -1.395833,3.125 -3.125,3.125 z" />
</svg>
