<?xml version="1.0" encoding="UTF-8" standalone="no"?>
<svg
   xmlns:dc="http://purl.org/dc/elements/1.1/"
   xmlns:cc="http://creativecommons.org/ns#"
   xmlns:rdf="http://www.w3.org/1999/02/22-rdf-syntax-ns#"
   xmlns:svg="http://www.w3.org/2000/svg"
   xmlns="http://www.w3.org/2000/svg"
   xmlns:sodipodi="http://sodipodi.sourceforge.net/DTD/sodipodi-0.dtd"
   xmlns:inkscape="http://www.inkscape.org/namespaces/inkscape"
   width="50"
   height="50"
   viewBox="0 0 50 50"
   version="1.1"
   id="svg6"
   sodipodi:docname="settings.svg"
   inkscape:version="0.92.4 (5da689c313, 2019-01-14)"
   inkscape:export-filename="C:\Users\ashley\Pictures\Games\PoorPeoplePizzaParty\export\icons\settings.png"
   inkscape:export-xdpi="96"
   inkscape:export-ydpi="96">
  <metadata
     id="metadata12">
    <rdf:RDF>
      <cc:Work
         rdf:about="">
        <dc:format>image/svg+xml</dc:format>
        <dc:type
           rdf:resource="http://purl.org/dc/dcmitype/StillImage" />
        <dc:title></dc:title>
      </cc:Work>
    </rdf:RDF>
  </metadata>
  <defs
     id="defs10">
    <filter
       style="color-interpolation-filters:sRGB;"
       inkscape:label="Drop Shadow"
       id="filter832">
      <feFlood
         flood-opacity="0.498039"
         flood-color="rgb(0,0,0)"
         result="flood"
         id="feFlood822" />
      <feComposite
         in="flood"
         in2="SourceGraphic"
         operator="in"
         result="composite1"
         id="feComposite824" />
      <feGaussianBlur
         in="composite1"
         stdDeviation="0"
         result="blur"
         id="feGaussianBlur826" />
      <feOffset
         dx="2"
         dy="2"
         result="offset"
         id="feOffset828" />
      <feComposite
         in="SourceGraphic"
         in2="offset"
         operator="over"
         result="composite2"
         id="feComposite830" />
    </filter>
  </defs>
  <sodipodi:namedview
     pagecolor="#ffffff"
     bordercolor="#666666"
     borderopacity="1"
     objecttolerance="10"
     gridtolerance="10"
     guidetolerance="10"
     inkscape:pageopacity="0"
     inkscape:pageshadow="2"
     inkscape:window-width="1920"
     inkscape:window-height="1017"
     id="namedview8"
     showgrid="false"
     fit-margin-top="0"
     fit-margin-left="0"
     fit-margin-right="0"
     fit-margin-bottom="0"
     inkscape:zoom="11.8"
     inkscape:cx="10"
     inkscape:cy="26.949153"
     inkscape:window-x="-8"
     inkscape:window-y="-8"
     inkscape:window-maximized="1"
     inkscape:current-layer="svg6" />
  <path
     d="M 0,0 H 50 V 50 H 0 Z"
     id="path2"
     inkscape:connector-curvature="0"
     style="fill:none;stroke-width:2.5" />
  <path
     d="M 39.875,26.95 C 39.95,26.325 40,25.675 40,25 40,24.325 39.95,23.675 39.85,23.05 l 4.225,-3.3 c 0.375,-0.3 0.475,-0.85 0.25,-1.275 l -4,-6.925 C 40.075,11.1 39.55,10.95 39.1,11.1 l -4.975,2 c -1.05,-0.8 -2.15,-1.45 -3.375,-1.95 L 30,5.85 C 29.925,5.35 29.5,5 29,5 h -8 c -0.5,0 -0.9,0.35 -0.975,0.85 l -0.75,5.3 c -1.225,0.5 -2.35,1.175 -3.375,1.95 l -4.975,-2 c -0.45,-0.175 -0.975,0 -1.225,0.45 l -4,6.925 c -0.25,0.45 -0.15,0.975 0.25,1.275 l 4.225,3.3 C 10.075,23.675 10,24.35 10,25 c 0,0.65 0.05,1.325 0.15,1.95 l -4.225,3.3 C 5.55,30.55 5.45,31.1 5.675,31.525 l 4,6.925 c 0.25,0.45 0.775,0.6 1.225,0.45 l 4.975,-2 c 1.05,0.8 2.15,1.45 3.375,1.95 l 0.75,5.3 c 0.1,0.5 0.5,0.85 1,0.85 h 8 c 0.5,0 0.925,-0.35 0.975,-0.85 l 0.75,-5.3 c 1.225,-0.5 2.35,-1.175 3.375,-1.95 l 4.975,2 c 0.45,0.175 0.975,0 1.225,-0.45 l 4,-6.925 c 0.25,-0.45 0.15,-0.975 -0.25,-1.275 z M 25,32.5 c -4.125,0 -7.5,-3.375 -7.5,-7.5 0,-4.125 3.375,-7.5 7.5,-7.5 4.125,0 7.5,3.375 7.5,7.5 0,4.125 -3.375,7.5 -7.5,7.5 z"
     id="path4"
     inkscape:connector-curvature="0"
     style="stroke-width:2.5;fill:#ffffff;filter:url(#filter832)" />
</svg>
