<?xml version="1.0" encoding="UTF-8" standalone="no"?>
<svg
   xmlns:dc="http://purl.org/dc/elements/1.1/"
   xmlns:cc="http://creativecommons.org/ns#"
   xmlns:rdf="http://www.w3.org/1999/02/22-rdf-syntax-ns#"
   xmlns:svg="http://www.w3.org/2000/svg"
   xmlns="http://www.w3.org/2000/svg"
   xmlns:sodipodi="http://sodipodi.sourceforge.net/DTD/sodipodi-0.dtd"
   xmlns:inkscape="http://www.inkscape.org/namespaces/inkscape"
   width="50"
   height="50"
   viewBox="0 0 50 50"
   version="1.1"
   id="svg876"
   sodipodi:docname="share.svg"
   inkscape:version="0.92.3 (2405546, 2018-03-11)"
   inkscape:export-filename="/home/ashley/Pictures/games/PoorPeoplePizzaParty/export/icons/share.png"
   inkscape:export-xdpi="96"
   inkscape:export-ydpi="96">
  <metadata
     id="metadata882">
    <rdf:RDF>
      <cc:Work
         rdf:about="">
        <dc:format>image/svg+xml</dc:format>
        <dc:type
           rdf:resource="http://purl.org/dc/dcmitype/StillImage" />
        <dc:title></dc:title>
      </cc:Work>
    </rdf:RDF>
  </metadata>
  <defs
     id="defs880">
    <filter
       style="color-interpolation-filters:sRGB;"
       inkscape:label="Drop Shadow"
       id="filter1459">
      <feFlood
         flood-opacity="0.6"
         flood-color="rgb(0,0,0)"
         result="flood"
         id="feFlood1449" />
      <feComposite
         in="flood"
         in2="SourceGraphic"
         operator="in"
         result="composite1"
         id="feComposite1451" />
      <feGaussianBlur
         in="composite1"
         stdDeviation="0"
         result="blur"
         id="feGaussianBlur1453" />
      <feOffset
         dx="2"
         dy="2"
         result="offset"
         id="feOffset1455" />
      <feComposite
         in="SourceGraphic"
         in2="offset"
         operator="over"
         result="composite2"
         id="feComposite1457" />
    </filter>
  </defs>
  <sodipodi:namedview
     pagecolor="#ffffff"
     bordercolor="#666666"
     borderopacity="1"
     objecttolerance="10"
     gridtolerance="10"
     guidetolerance="10"
     inkscape:pageopacity="0"
     inkscape:pageshadow="2"
     inkscape:window-width="1869"
     inkscape:window-height="1016"
     id="namedview878"
     showgrid="false"
     fit-margin-top="0"
     fit-margin-left="0"
     fit-margin-right="0"
     fit-margin-bottom="0"
     inkscape:zoom="9.8333333"
     inkscape:cx="12"
     inkscape:cy="11.999999"
     inkscape:window-x="51"
     inkscape:window-y="27"
     inkscape:window-maximized="1"
     inkscape:current-layer="svg876" />
  <path
     d="M 0,0 H 49.999999 V 49.999999 H 0 Z"
     id="path872"
     inkscape:connector-curvature="0"
     style="fill:none;stroke-width:1" />
  <path
     d="m 37.499999,33.5 c -1.583333,0 -3,0.625 -4.083333,1.604166 L 18.5625,26.458333 C 18.666666,25.979166 18.75,25.5 18.75,25 c 0,-0.5 -0.08333,-0.979167 -0.1875,-1.458334 l 14.687499,-8.5625 c 1.125,1.041667 2.604167,1.6875 4.25,1.6875 3.458334,0 6.25,-2.791666 6.25,-6.25 0,-3.458333 -2.791666,-6.249999 -6.25,-6.249999 -3.458333,0 -6.249999,2.791666 -6.249999,6.249999 0,0.5 0.08333,0.979167 0.187499,1.458334 L 16.75,20.4375 C 15.625,19.395833 14.145833,18.75 12.5,18.75 c -3.4583335,0 -6.2500001,2.791666 -6.2500001,6.25 0,3.458333 2.7916666,6.25 6.2500001,6.25 1.645833,0 3.125,-0.645834 4.25,-1.6875 l 14.833333,8.666666 c -0.104167,0.4375 -0.166667,0.895833 -0.166667,1.354167 0,3.354166 2.729167,6.083333 6.083333,6.083333 3.354167,0 6.083334,-2.729167 6.083334,-6.083333 0,-3.354167 -2.729167,-6.083333 -6.083334,-6.083333 z"
     id="path874"
     inkscape:connector-curvature="0"
     style="stroke-width:1;fill:#ffffff;filter:url(#filter1459)" />
</svg>
