<?xml version="1.0" encoding="UTF-8" standalone="no"?>
<!-- Created with Inkscape (http://www.inkscape.org/) -->

<svg
   xmlns:dc="http://purl.org/dc/elements/1.1/"
   xmlns:cc="http://creativecommons.org/ns#"
   xmlns:rdf="http://www.w3.org/1999/02/22-rdf-syntax-ns#"
   xmlns:svg="http://www.w3.org/2000/svg"
   xmlns="http://www.w3.org/2000/svg"
   xmlns:xlink="http://www.w3.org/1999/xlink"
   xmlns:sodipodi="http://sodipodi.sourceforge.net/DTD/sodipodi-0.dtd"
   xmlns:inkscape="http://www.inkscape.org/namespaces/inkscape"
   width="960"
   height="600"
   viewBox="0 0 253.99999 158.75"
   version="1.1"
   id="svg8"
   inkscape:version="0.92.3 (2405546, 2018-03-11)"
   sodipodi:docname="doomdrips_photo.svg">
  <defs
     id="defs2">
    <clipPath
       clipPathUnits="userSpaceOnUse"
       id="clipPath4594">
      <rect
         style="opacity:1;fill:none;fill-opacity:1;stroke:#000000;stroke-width:0.26458332;stroke-miterlimit:4;stroke-dasharray:none;stroke-opacity:1"
         id="rect4596"
         width="960"
         height="600"
         x="0.49999997"
         y="-0.5000118" />
    </clipPath>
  </defs>
  <sodipodi:namedview
     id="base"
     pagecolor="#ffffff"
     bordercolor="#666666"
     borderopacity="1.0"
     inkscape:pageopacity="0.0"
     inkscape:pageshadow="2"
     inkscape:zoom="1"
     inkscape:cx="403.14286"
     inkscape:cy="314"
     inkscape:document-units="px"
     inkscape:current-layer="svg8"
     showgrid="false"
     units="px"
     inkscape:window-width="1869"
     inkscape:window-height="1016"
     inkscape:window-x="51"
     inkscape:window-y="27"
     inkscape:window-maximized="1" />
  <metadata
     id="metadata5">
    <rdf:RDF>
      <cc:Work
         rdf:about="">
        <dc:format>image/svg+xml</dc:format>
        <dc:type
           rdf:resource="http://purl.org/dc/dcmitype/StillImage" />
        <dc:title></dc:title>
      </cc:Work>
    </rdf:RDF>
  </metadata>
  <g
     inkscape:label="Photo"
     inkscape:groupmode="layer"
     id="layer1"
     transform="translate(0,-138.24998)">
    <image
       sodipodi:absref="/home/ashley/Pictures/games/PoorPeoplePizzaParty/export/lunch.png"
       y="138.24998"
       x="0"
       id="image3775"
       xlink:href="file:///home/ashley/Pictures/games/PoorPeoplePizzaParty/export/lunch.png"
       preserveAspectRatio="none"
       height="158.75"
       width="254"
       style="stroke-width:0.32000002" />
  </g>
  <g
     inkscape:groupmode="layer"
     id="layer2"
     inkscape:label="Blood" />
  <path
     style="fill:#ff0000;stroke:#d40000;stroke-width:0.99999994px;stroke-linecap:butt;stroke-linejoin:miter;stroke-opacity:1;opacity:1"
     d="M -51 -29 C -59.31 -29 -66 -22.31 -66 -14 L -66 80 C -66 88.31 -59.31 95 -51 95 L -19 95 C -10.487284 101.82059 3.642072 169.94084 6 187 C 14.272058 200.77886 22.996966 216.08379 21 234.07422 C 19.081622 250.61624 23.530105 265.68543 36 277 C 42.190519 290.5304 60.051041 292.80767 68 277 C 68.757172 263.694 73.993606 251.33668 72 237 C 75.039523 228.32165 82.042816 204.32287 89 220 C 96.22578 230.71292 119.84236 249.48036 132 237 C 141.9356 233.24982 149.26334 232.33809 153.77148 219.92773 C 166.69435 223.52608 191.40927 220.28893 185 241.15039 C 185.84451 259.04511 174.46755 272.50295 177 291.22461 C 175.81494 303.57168 177.34386 314.60861 185 323 C 192.78778 336.45862 195.06305 344.76876 206 357 C 210.51219 371.12613 224.86474 375.96388 238.15039 376 C 249.7247 376.15447 260.31181 378.18611 263 365 C 267.27926 354.56844 267.26879 336.05529 264 327 C 245.84174 319.73532 253.70338 295.80191 252 279.17578 C 250.67019 263.74429 277.44694 272.04042 283.96875 277.10938 C 300.40481 285.53941 296.30143 307.25962 309.03906 317.0625 C 326.35316 324.24029 345.52043 321.37834 347.0625 304.38086 C 353.98874 285.6447 361.75622 309.00542 365 318 C 372.52414 330.5451 379.64125 352.15187 395 355 C 409.56025 338.34601 435.69643 332.04785 436 307 C 439.91223 288.77576 441.25298 271.85265 445 255.92578 C 443.73257 231.55739 446.44721 207.54484 452.07031 184.12891 C 455.9308 165.37846 451.51192 138.17787 471 129 C 478.62576 120.67854 489.68829 109.31807 501 115 C 515.64866 122.30721 517.75932 138.13098 524 151 C 533.80062 170.96722 539.73949 126.87377 553 122 C 569.55766 119.99804 589.65581 125.15593 591 144 C 591.55824 161.71812 589.8382 180.13677 591.9375 197.38086 C 591.01148 211.79173 617.67524 209.21036 625 198 C 636.42748 191.74898 647.47273 179.77299 661 183 C 672.2842 184.87544 685.73672 190.43519 686 206 C 687.42775 232.89709 682.83448 261.04427 688.88086 287.00195 C 699.09311 292.43948 717.31887 326.56 722 308 C 727.61392 299.82353 730.02354 282.05559 744.15039 284 C 761.54865 278.85343 757.54807 299.62101 763 309 C 769.30274 319.04696 777.21477 330.7676 784 339 C 792.83733 333.03595 803.73804 322.27061 804 309 C 808.23318 293.43234 813.81415 278.10857 819 262 C 824.44838 244.43884 825.8933 220.52323 829 199 C 837.32479 183.58466 840.74745 166.76012 853 157 C 874.78149 141.47318 867.17392 175.11026 872 187 C 871.30933 205.17042 874.41829 224.23922 867.36523 240.95703 C 863.97209 253.08262 858.72097 273.09807 854 288 C 848.27798 301.89053 850.41065 318.25986 850 334 C 855.92037 345.14628 856.09769 364.92134 873.15039 366 C 887.44124 367.74545 899.69325 364.03839 909 354 C 916.41721 344.17543 925.80804 336.30593 939.22461 339 C 953.26026 339.86449 966.18695 338.22984 976 333 C 978.89009 332.00874 982.16634 332.78687 985 331 C 985.33335 329.33333 986 327.69967 986 326 C 986 324.30033 985.27942 322.67655 985 321 C 984.9452 320.67122 985 320.33333 985 320 L 985 316 L 985 301 L 985 295 C 985 294 985.12397 292.99228 985 292 C 984.7891 290.31345 984.18773 288.68928 984 287 C 983.85298 285.67482 984.21921 284.31519 984 283 C 983.87754 282.26478 983.14619 281.73088 983 281 C 982.67307 279.3657 983.32693 277.6343 983 276 C 982.79326 274.96637 982.25565 274.02262 982 273 C 981.91912 272.67662 982.14891 272.29814 982 272 C 980.83081 270.24622 980.20739 269.35418 979.78711 268.77148 C 980.31847 269.35471 980.88364 269.65092 980 267 C 979.85109 266.55278 979.14906 266.44722 979 266 C 978.84769 265.54261 979.22261 262.44498 979 262 C 978.7891 261.57836 978.1491 261.44721 978 261 C 977.68365 260.05132 978.31635 258.94868 978 258 C 977.76416 257.29289 977.14619 256.73088 977 256 C 976.73506 254.6756 977.37682 248.94209 977 248 C 976.65002 247.12462 975.42164 246.84327 975 246 C 974.62318 245.24624 975.27213 242.0887 975 241 C 974.7445 239.97738 974.25565 239.02262 974 238 C 973.7978 237.19088 974 233.14683 974 233 L 974 222 L 974 210 C 974 209.18251 973.83106 203.50683 974 203 C 974.14891 202.55278 974.85094 202.44722 975 202 C 975.2109 201.36755 974.86923 200.65372 975 200 C 975.20674 198.96637 975.79326 198.03362 976 197 C 976.13077 196.34628 975.89039 195.6576 976 195 C 976.22602 193.64433 976.86326 192.36755 977 191 C 977.19918 189.00992 976.64208 186.96774 977 185 C 977.00351 184.98072 980.93805 175.1652 981 175 C 981.37002 174.01303 981.85094 173.0435 982 172 C 982.1886 170.68007 981.73846 169.30744 982 168 C 982.0926 167.53775 982.82493 167.43769 983 167 C 983.51043 165.72393 983.73048 164.34768 984 163 C 984.20107 161.99439 983.74072 157.51823 984 157 C 984.42164 156.15672 985.57836 155.84327 986 155 C 986.21354 154.57292 986 150.39531 986 150 L 986 148 C 986 147.66668 985.91912 147.32338 986 147 C 986.2555 145.97738 986.74435 145.02262 987 144 C 987.16176 143.35324 987 142.66666 987 142 L 987 135 C 987 134.33333 986.7891 133.63245 987 133 C 987.14929 132.55278 987.88567 132.45733 988 132 C 988.34394 130.62475 987.66891 128.32491 988 127 C 988.2555 125.97738 988.7933 125.03362 989 124 C 989.26154 122.69256 989 121.33333 989 120 L 989 112 L 989 95 L 997 95 C 1005.31 95 1012 88.31 1012 80 L 1012 -14 C 1012 -22.31 1005.31 -29 997 -29 L -51 -29 z "
     transform="scale(0.26458333)"
     id="path3779"
     clip-path="url(#clipPath4594)" />
</svg>
