<?xml version="1.0" encoding="UTF-8" standalone="no"?>
<!-- Created with Inkscape (http://www.inkscape.org/) -->

<svg
   xmlns:dc="http://purl.org/dc/elements/1.1/"
   xmlns:cc="http://creativecommons.org/ns#"
   xmlns:rdf="http://www.w3.org/1999/02/22-rdf-syntax-ns#"
   xmlns:svg="http://www.w3.org/2000/svg"
   xmlns="http://www.w3.org/2000/svg"
   xmlns:sodipodi="http://sodipodi.sourceforge.net/DTD/sodipodi-0.dtd"
   xmlns:inkscape="http://www.inkscape.org/namespaces/inkscape"
   width="960"
   height="377.20581"
   viewBox="0 0 254 99.802368"
   version="1.1"
   id="svg4604"
   inkscape:version="0.92.3 (2405546, 2018-03-11)"
   sodipodi:docname="doomdrips.svg"
   inkscape:export-filename="/home/ashley/Pictures/games/PoorPeoplePizzaParty/export/doomdrips.png"
   inkscape:export-xdpi="96"
   inkscape:export-ydpi="96">
  <defs
     id="defs4598">
    <clipPath
       clipPathUnits="userSpaceOnUse"
       id="clipPath4594">
      <rect
         style="opacity:1;fill:none;fill-opacity:1;stroke:#000000;stroke-width:0.26458332;stroke-miterlimit:4;stroke-dasharray:none;stroke-opacity:1"
         id="rect4596"
         width="960"
         height="600"
         x="0.49999997"
         y="-0.5000118" />
    </clipPath>
  </defs>
  <sodipodi:namedview
     id="base"
     pagecolor="#ffffff"
     bordercolor="#666666"
     borderopacity="1.0"
     inkscape:pageopacity="0.0"
     inkscape:pageshadow="2"
     inkscape:zoom="1"
     inkscape:cx="448.42856"
     inkscape:cy="133.03149"
     inkscape:document-units="px"
     inkscape:current-layer="layer1"
     showgrid="false"
     fit-margin-top="0"
     fit-margin-left="0"
     fit-margin-right="0"
     fit-margin-bottom="0"
     units="px"
     inkscape:window-width="1869"
     inkscape:window-height="1016"
     inkscape:window-x="51"
     inkscape:window-y="27"
     inkscape:window-maximized="1" />
  <metadata
     id="metadata4601">
    <rdf:RDF>
      <cc:Work
         rdf:about="">
        <dc:format>image/svg+xml</dc:format>
        <dc:type
           rdf:resource="http://purl.org/dc/dcmitype/StillImage" />
        <dc:title></dc:title>
      </cc:Work>
    </rdf:RDF>
  </metadata>
  <g
     inkscape:label="Layer 1"
     inkscape:groupmode="layer"
     id="layer1"
     transform="translate(21.922617,-160.1643)">
    <path
       transform="matrix(0.26458333,0,0,0.26458333,-22.054909,160.29659)"
       inkscape:connector-curvature="0"
       style="opacity:1;fill:#ff0000;stroke:#d40000;stroke-width:0.99999994px;stroke-linecap:butt;stroke-linejoin:miter;stroke-opacity:1"
       d="m -51,-29 c -8.31,0 -15,6.69 -15,15 v 94 c 0,8.31 6.69,15 15,15 h 32 c 8.512716,6.82059 22.642072,74.94084 25,92 8.272058,13.77886 16.996966,29.08379 15,47.07422 -1.918378,16.54202 2.530105,31.61121 15,42.92578 6.190519,13.5304 24.051041,15.80767 32,0 0.757172,-13.306 5.993606,-25.66332 4,-40 3.039523,-8.67835 10.042816,-32.67713 17,-17 7.22578,10.71292 30.84236,29.48036 43,17 9.9356,-3.75018 17.26334,-4.66191 21.77148,-17.07227 12.92287,3.59835 37.63779,0.3612 31.22852,21.22266 0.84451,17.89472 -10.53245,31.35256 -8,50.07422 -1.18506,12.34707 0.34386,23.384 8,31.77539 7.78778,13.45862 10.06305,21.76876 21,34 4.51219,14.12613 18.86474,18.96388 32.15039,19 11.57431,0.15447 22.16142,2.18611 24.84961,-11 4.27926,-10.43156 4.26879,-28.94471 1,-38 -18.15826,-7.26468 -10.29662,-31.19809 -12,-47.82422 -1.32981,-15.43149 25.44694,-7.13536 31.96875,-2.0664 16.43606,8.43003 12.33268,30.15024 25.07031,39.95312 17.3141,7.17779 36.48137,4.31584 38.02344,-12.68164 C 353.98874,285.6447 361.75622,309.00542 365,318 c 7.52414,12.5451 14.64125,34.15187 30,37 14.56025,-16.65399 40.69643,-22.95215 41,-48 3.91223,-18.22424 5.25298,-35.14735 9,-51.07422 -1.26743,-24.36839 1.44721,-48.38094 7.07031,-71.79687 C 455.9308,165.37846 451.51192,138.17787 471,129 c 7.62576,-8.32146 18.68829,-19.68193 30,-14 14.64866,7.30721 16.75932,23.13098 23,36 9.80062,19.96722 15.73949,-24.12623 29,-29 16.55766,-2.00196 36.65581,3.15593 38,22 0.55824,17.71812 -1.1618,36.13677 0.9375,53.38086 -0.92602,14.41087 25.73774,11.8295 33.0625,0.61914 11.42748,-6.25102 22.47273,-18.22701 36,-15 11.2842,1.87544 24.73672,7.43519 25,23 1.42775,26.89709 -3.16552,55.04427 2.88086,81.00195 C 699.09311,292.43948 717.31887,326.56 722,308 c 5.61392,-8.17647 8.02354,-25.94441 22.15039,-24 17.39826,-5.14657 13.39768,15.62101 18.84961,25 6.30274,10.04696 14.21477,21.7676 21,30 8.83733,-5.96405 19.73804,-16.72939 20,-30 4.23318,-15.56766 9.81415,-30.89143 15,-47 5.44838,-17.56116 6.8933,-41.47677 10,-63 8.32479,-15.41534 11.74745,-32.23988 24,-42 21.78149,-15.52682 14.17392,18.11026 19,30 -0.69067,18.17042 2.41829,37.23922 -4.63477,53.95703 C 863.97209,253.08262 858.72097,273.09807 854,288 c -5.72202,13.89053 -3.58935,30.25986 -4,46 5.92037,11.14628 6.09769,30.92134 23.15039,32 14.29085,1.74545 26.54286,-1.96161 35.84961,-12 7.41721,-9.82457 16.80804,-17.69407 30.22461,-15 14.03565,0.86449 26.96234,-0.77016 36.77539,-6 2.89009,-0.99126 6.16634,-0.21313 9,-2 0.33335,-1.66667 1,-3.30033 1,-5 0,-1.69967 -0.72058,-3.32345 -1,-5 -0.0548,-0.32878 0,-0.66667 0,-1 v -4 -15 -6 c 0,-1 0.12397,-2.00772 0,-3 -0.2109,-1.68655 -0.81227,-3.31072 -1,-5 -0.14702,-1.32518 0.21921,-2.68481 0,-4 -0.12246,-0.73522 -0.85381,-1.26912 -1,-2 -0.32693,-1.6343 0.32693,-3.3657 0,-5 -0.20674,-1.03363 -0.74435,-1.97738 -1,-3 -0.0809,-0.32338 0.14891,-0.70186 0,-1 -1.16919,-1.75378 -1.79261,-2.64582 -2.21289,-3.22852 0.53136,0.58323 1.09653,0.87944 0.21289,-1.77148 -0.14891,-0.44722 -0.85094,-0.55278 -1,-1 -0.15231,-0.45739 0.22261,-3.55502 0,-4 -0.2109,-0.42164 -0.8509,-0.55279 -1,-1 -0.31635,-0.94868 0.31635,-2.05132 0,-3 -0.23584,-0.70711 -0.85381,-1.26912 -1,-2 -0.26494,-1.3244 0.37682,-7.05791 0,-8 -0.34998,-0.87538 -1.57836,-1.15673 -2,-2 -0.37682,-0.75376 0.27213,-3.9113 0,-5 -0.2555,-1.02262 -0.74435,-1.97738 -1,-3 -0.2022,-0.80912 0,-4.85317 0,-5 v -11 -12 c 0,-0.81749 -0.16894,-6.49317 0,-7 0.14891,-0.44722 0.85094,-0.55278 1,-1 0.2109,-0.63245 -0.13077,-1.34628 0,-2 0.20674,-1.03363 0.79326,-1.96638 1,-3 0.13077,-0.65372 -0.10961,-1.3424 0,-2 0.22602,-1.35567 0.86326,-2.63245 1,-4 0.19918,-1.99008 -0.35792,-4.03226 0,-6 0.004,-0.0193 3.93805,-9.8348 4,-10 0.37002,-0.98697 0.85094,-1.9565 1,-3 0.1886,-1.31993 -0.26154,-2.69256 0,-4 0.0926,-0.46225 0.82493,-0.56231 1,-1 0.51043,-1.27607 0.73048,-2.65232 1,-4 0.20107,-1.00561 -0.25928,-5.48177 0,-6 0.42164,-0.84328 1.57836,-1.15673 2,-2 0.21354,-0.42708 0,-4.60469 0,-5 v -2 c 0,-0.33332 -0.0809,-0.67662 0,-1 0.2555,-1.02262 0.74435,-1.97738 1,-3 0.16176,-0.64676 0,-1.33334 0,-2 v -7 c 0,-0.66667 -0.2109,-1.36755 0,-2 0.14929,-0.44722 0.88567,-0.54267 1,-1 0.34394,-1.37525 -0.33109,-3.67509 0,-5 0.2555,-1.02262 0.7933,-1.96638 1,-3 0.26154,-1.30744 0,-2.66667 0,-4 v -8 -17 h 8 c 8.31,0 15,-6.69 15,-15 v -94 c 0,-8.31 -6.69,-15 -15,-15 z"
       id="path3779"
       clip-path="url(#clipPath4594)" />
  </g>
</svg>
